# xmcd CD database file
#
# Track frame offsets:
#	150
#	48295
#	60305
#	80770
#	116882
#	129667
#	155617
#	176540
#	188330
#	201634
#	224357
#
# Disc length: 3222 seconds
#
# Revision: 2
# Processed by: cddbd v1.5.2PL0 Copyright (c) Steve Scherf et al.
# Submitted via: CDex 1.51
#
DISCID=9e0c940b
DTITLE=Geraldo FIlme - A música brasileira deste século por seus autores e intérpretes
DYEAR=1900
DGENRE=Samba
TTITLE0=Batuque de pirapora
TTITLE1=Samba da barra funda
TTITLE2=Lava pes
TTITLE3=Tebas
TTITLE4=Eu vou mostrar
TTITLE5=Benedito chorou
TTITLE6=Silencio no Bexiga
TTITLE7=Cordao do Vai Vai
TTITLE8=Vai no Bexiga pra ver
TTITLE9=Tradicoes e festas de pirapora
TTITLE10=Que gente é essa
EXTD=
EXTT0=
EXTT1=
EXTT2=
EXTT3=
EXTT4=
EXTT5=
EXTT6=
EXTT7=
EXTT8=
EXTT9=
EXTT10=
PLAYORDER=
